# xmcd CD database file
# Copyright (C) 1996 Ti Kan
#
# Track frame offsets:
# 	150
# 	26480
# 	45652
# 	66750
# 	82727
# 	104470
# 	122395
# 	159772
# 	172497
# 	197975
# 	218707
# 	233205
# 	248837
# 	271995
#
# Disc length: 4072 seconds
#
# Revision: 1
# Processed by: cddbd v1.4b41PL1 Copyright (c) Steve Scherf et al.
# Submitted via: DiscPlay 3.2
#
DISCID=b90fe60e
DTITLE=Blues Traveler - Save His Soul
DYEAR=1900
DGENRE=
TTITLE0=Trina Magna
TTITLE1=Love and Greed
TTITLE2=Letter From a Friend
TTITLE3=Believe Me
TTITLE4=Go Outside and Drive
TTITLE5=Defense and Desire
TTITLE6=Whoops
TTITLE7=Manhattan Bridge
TTITLE8=Love of My Life
TTITLE9=NY Prophesie
TTITLE10=Save his Soul
TTITLE11=Bullshitter's Lament
TTITLE12=Conquer Me
TTITLE13=Fledgling
EXTD=
EXTT0=
EXTT1=
EXTT2=
EXTT3=
EXTT4=
EXTT5=
EXTT6=
EXTT7=
EXTT8=
EXTT9=
EXTT10=
EXTT11=
EXTT12=
EXTT13=
PLAYORDER=
